<?xml version="1.0" standalone="no"?>
<!DOCTYPE svg PUBLIC "-//W3C//DTD SVG 20010904//EN"
 "http://www.w3.org/TR/2001/REC-SVG-20010904/DTD/svg10.dtd">
<svg version="1.0" xmlns="http://www.w3.org/2000/svg"
 width="700.000000pt" height="700.000000pt" viewBox="0 0 700.000000 700.000000"
 preserveAspectRatio="xMidYMid meet">
<metadata>
Created by potrace 1.14, written by Peter Selinger 2001-2017
</metadata>
<g transform="translate(0.000000,700.000000) scale(0.100000,-0.100000)"
fill="#000000" stroke="none">
<path d="M3460 6107 c-14 -8 -74 -41 -135 -74 -283 -155 -819 -448 -935 -511
-36 -19 -100 -55 -144 -79 -43 -23 -80 -43 -82 -43 -3 0 -21 -10 -42 -23 -20
-13 -82 -48 -137 -77 -55 -29 -104 -56 -110 -60 -5 -4 -53 -30 -105 -57 -52
-28 -144 -78 -204 -112 -60 -34 -111 -61 -113 -61 -2 0 -38 -20 -81 -43 -42
-24 -108 -61 -147 -82 -66 -36 -143 -77 -210 -115 -16 -9 -66 -36 -110 -60
-44 -23 -102 -55 -130 -70 -27 -15 -76 -42 -108 -59 -33 -18 -69 -38 -80 -45
-12 -7 -58 -33 -102 -56 -109 -58 -185 -101 -185 -105 0 -4 68 -42 350 -195
135 -73 265 -144 290 -158 25 -14 88 -48 140 -75 52 -28 140 -76 195 -107
l100 -55 1 -874 c2 -837 3 -874 20 -885 31 -18 135 -76 214 -118 41 -22 89
-48 105 -58 17 -9 62 -34 100 -55 39 -21 160 -87 270 -148 110 -60 225 -123
255 -140 66 -36 123 -67 170 -94 20 -11 71 -39 115 -63 44 -23 100 -54 125
-68 47 -25 533 -292 630 -345 30 -16 68 -37 83 -46 26 -15 30 -14 75 9 57 30
299 162 362 198 25 13 115 63 200 110 85 46 175 96 200 110 25 13 189 103 365
199 176 97 338 186 360 198 44 25 119 66 236 129 41 23 136 75 211 116 l136
74 0 874 c0 481 2 875 4 877 2 1 150 77 331 169 l327 166 0 -1028 0 -1028 218
0 217 1 3 1155 2 1155 -37 20 c-21 11 -92 50 -158 86 -66 36 -160 88 -210 114
-49 27 -128 69 -175 95 -47 26 -121 66 -165 90 -44 24 -253 137 -465 253 -212
115 -419 227 -460 250 -41 22 -113 61 -160 87 -47 26 -116 64 -155 85 -38 20
-92 50 -120 65 -27 15 -131 71 -230 125 -170 92 -209 114 -337 184 -29 15 -84
45 -123 66 -38 21 -108 59 -155 85 -159 88 -258 140 -267 140 -4 0 -19 -6 -33
-13z m205 -592 c39 -21 108 -58 155 -83 115 -60 209 -111 245 -132 17 -10 75
-41 130 -70 125 -66 485 -259 585 -313 131 -71 163 -88 260 -139 52 -28 118
-63 145 -78 28 -15 79 -43 115 -62 86 -46 217 -117 310 -168 41 -22 96 -50
122 -63 26 -12 46 -26 45 -31 -3 -9 -77 -52 -247 -143 -47 -25 -98 -54 -115
-63 -16 -10 -59 -33 -95 -52 -226 -122 -537 -292 -545 -298 -5 -4 -55 -31
-110 -60 -98 -52 -175 -94 -245 -133 -31 -17 -276 -151 -430 -234 -30 -17 -75
-42 -100 -55 -25 -14 -79 -43 -120 -66 -41 -22 -120 -65 -175 -96 l-100 -55
-85 46 c-47 26 -285 156 -529 291 -244 134 -469 258 -500 274 -31 17 -189 103
-351 193 -162 89 -324 178 -360 197 -36 20 -87 48 -115 64 -55 31 -149 82
-267 146 -43 23 -77 42 -75 43 3 3 363 198 447 243 36 19 153 82 260 140 107
57 222 119 255 137 33 18 170 92 305 165 355 192 370 200 425 230 28 15 154
83 280 150 127 68 248 134 270 146 l40 22 50 -28 c28 -15 82 -45 120 -65z
m-1810 -1998 c11 -8 70 -40 130 -72 61 -32 115 -61 120 -65 6 -4 46 -26 90
-50 44 -24 103 -55 130 -70 28 -15 77 -42 110 -60 33 -18 107 -58 165 -90 58
-31 141 -76 185 -100 44 -24 103 -55 130 -70 126 -69 395 -216 445 -243 30
-17 72 -40 93 -51 l38 -20 62 32 c34 17 105 54 157 82 52 29 137 74 187 101
51 27 112 60 135 73 24 13 88 47 143 76 55 29 129 69 165 88 36 19 97 52 135
72 39 20 133 71 210 112 77 41 176 94 220 118 44 23 122 65 173 92 l92 49 0
-613 0 -614 -42 -22 c-24 -12 -70 -36 -103 -55 -33 -19 -130 -72 -215 -119
-85 -47 -175 -97 -200 -110 -25 -14 -72 -40 -105 -58 -33 -18 -73 -40 -90 -50
-16 -9 -55 -31 -85 -47 -30 -17 -113 -62 -184 -102 -70 -39 -130 -71 -132 -71
-3 0 -21 -10 -42 -23 -20 -13 -68 -41 -107 -62 -160 -87 -181 -98 -210 -115
-16 -9 -60 -33 -96 -53 l-66 -36 -159 88 c-88 48 -179 99 -204 113 -45 25
-109 60 -217 120 -32 17 -134 73 -226 125 -93 51 -170 93 -172 93 -2 0 -30 15
-62 34 -32 19 -186 105 -343 191 -157 87 -287 160 -290 162 -10 10 -5 1233 5
1233 6 0 19 -6 30 -13z"/>
</g>
</svg>
